<?xml version="1.0" standalone="no"?>
<!DOCTYPE svg PUBLIC "-//W3C//DTD SVG 20010904//EN"
 "http://www.w3.org/TR/2001/REC-SVG-20010904/DTD/svg10.dtd">
<svg version="1.0" xmlns="http://www.w3.org/2000/svg"
 width="300.000000pt" height="171.000000pt" viewBox="0 0 300.000000 171.000000"
 preserveAspectRatio="xMidYMid meet">
<metadata>
Created by potrace 1.10, written by Peter Selinger 2001-2011
</metadata>
<g transform="translate(0.000000,171.000000) scale(0.100000,-0.100000)"
fill="#000000" stroke="none">
<path d="M1634 1347 c-11 -12 -27 -26 -37 -30 -9 -4 -20 -15 -24 -24 -4 -10
-28 -38 -54 -63 -40 -38 -48 -52 -54 -95 -3 -27 -17 -73 -31 -100 -17 -35 -24
-67 -24 -108 0 -31 -4 -57 -8 -57 -24 0 -166 159 -226 254 -38 58 -72 106 -77
106 -20 0 -21 -34 -4 -89 10 -31 17 -70 16 -86 -1 -21 8 -44 28 -73 19 -25 31
-54 31 -72 0 -41 23 -84 60 -110 22 -16 30 -29 30 -53 1 -42 23 -69 94 -111
l59 -36 -49 -21 c-130 -56 -231 -108 -248 -127 -19 -22 -19 -22 5 -22 l23 0
-22 -16 c-12 -8 -22 -22 -22 -31 0 -13 9 -15 56 -9 51 6 55 5 44 -9 -19 -22
-10 -25 39 -13 32 8 63 29 113 76 l68 64 33 -13 c17 -8 66 -14 107 -14 66 0
84 4 145 35 60 30 73 41 92 81 18 38 31 50 68 65 25 11 45 21 44 24 0 3 -27
18 -59 34 l-59 28 -34 -21 c-63 -39 -115 -21 -148 53 -28 62 -24 106 17 183
35 66 35 70 29 143 -5 56 -2 92 10 139 27 106 10 171 -31 118z m15 -96 c-7
-25 -13 -94 -13 -152 -1 -99 -3 -108 -30 -150 -95 -141 11 -326 148 -259 44
21 46 21 76 4 37 -23 37 -27 1 -41 -21 -7 -37 -26 -53 -59 -30 -63 -100 -104
-192 -111 -61 -5 -146 10 -146 26 0 5 16 21 36 36 19 15 33 29 30 32 -8 8 -60
-34 -161 -127 -47 -44 -94 -80 -103 -80 -12 1 -5 11 22 35 47 42 42 43 -24 10
-27 -14 -64 -25 -81 -25 -28 0 -30 2 -18 17 8 9 37 27 64 39 57 26 48 31 -15
9 -23 -8 -47 -15 -53 -15 -26 0 17 23 161 89 l153 69 -72 43 c-78 47 -115 88
-106 114 6 14 9 14 36 0 51 -26 48 -16 -4 16 -69 43 -103 77 -116 116 -12 37
-4 59 12 30 6 -9 15 -17 21 -17 7 0 0 12 -14 28 -37 39 -78 102 -78 120 0 13
3 12 15 -4 8 -10 4 6 -9 36 -53 124 -40 149 20 38 28 -53 68 -103 148 -182
106 -107 108 -110 88 -124 -31 -20 -28 -61 9 -111 38 -53 51 -47 15 6 -28 40
-34 79 -13 86 6 2 18 -5 25 -17 12 -20 13 -20 6 4 -13 45 -7 193 9 230 l15 35
2 -50 c5 -118 17 -104 21 25 5 143 17 188 60 210 20 11 20 10 14 -34 -11 -68
0 -56 19 22 20 81 40 117 32 57 l-5 -40 14 30 c8 17 14 37 15 46 0 8 6 21 13
28 18 18 22 -31 6 -88z"/>
</g>
</svg>
